<mxfile host="Electron" agent="Mozilla/5.0 (Windows NT 10.0; Win64; x64) AppleWebKit/537.36 (KHTML, like Gecko) draw.io/24.7.8 Chrome/128.0.6613.36 Electron/32.0.1 Safari/537.36" version="24.7.8">
  <diagram id="C5RBs43oDa-KdzZeNtuy" name="ROBOCON24">
    <mxGraphModel dx="3715" dy="1491" grid="1" gridSize="10" guides="1" tooltips="1" connect="1" arrows="1" fold="1" page="0" pageScale="1" pageWidth="3300" pageHeight="4681" math="0" shadow="0">
      <root>
        <mxCell id="WIyWlLk6GJQsqaUBKTNV-0" />
        <mxCell id="WIyWlLk6GJQsqaUBKTNV-1" parent="WIyWlLk6GJQsqaUBKTNV-0" />
        <mxCell id="9Ab4cJnhd8zgXZMk1Fa1-70" value="" style="rounded=0;whiteSpace=wrap;html=1;fillStyle=auto;glass=0;fillColor=default;movable=1;resizable=1;rotatable=1;deletable=1;editable=1;locked=0;connectable=1;" parent="WIyWlLk6GJQsqaUBKTNV-1" vertex="1">
          <mxGeometry x="-1680" y="-370" width="1480" height="980" as="geometry" />
        </mxCell>
        <mxCell id="9Ab4cJnhd8zgXZMk1Fa1-67" value="" style="rounded=0;whiteSpace=wrap;html=1;fillStyle=auto;glass=0;fillColor=default;movable=1;resizable=1;rotatable=1;deletable=1;editable=1;locked=0;connectable=1;" parent="WIyWlLk6GJQsqaUBKTNV-1" vertex="1">
          <mxGeometry x="10" y="-390" width="940" height="1000" as="geometry" />
        </mxCell>
        <mxCell id="9Ab4cJnhd8zgXZMk1Fa1-14" style="edgeStyle=orthogonalEdgeStyle;rounded=0;orthogonalLoop=1;jettySize=auto;html=1;entryX=0;entryY=0.5;entryDx=0;entryDy=0;strokeColor=#A50040;fontColor=#095C86;fillColor=#d80073;strokeWidth=5;align=center;verticalAlign=middle;fontFamily=Helvetica;fontSize=11;labelBackgroundColor=default;startSize=5;endArrow=classic;endSize=5;curved=0;movable=1;resizable=1;rotatable=1;deletable=1;editable=1;locked=0;connectable=1;" parent="WIyWlLk6GJQsqaUBKTNV-1" source="9Ab4cJnhd8zgXZMk1Fa1-1" target="9Ab4cJnhd8zgXZMk1Fa1-3" edge="1">
          <mxGeometry relative="1" as="geometry" />
        </mxCell>
        <mxCell id="9Ab4cJnhd8zgXZMk1Fa1-37" style="edgeStyle=orthogonalEdgeStyle;rounded=0;orthogonalLoop=1;jettySize=auto;html=1;exitX=0.75;exitY=1;exitDx=0;exitDy=0;entryX=0.5;entryY=0;entryDx=0;entryDy=0;strokeColor=#A50040;fontColor=#095C86;fillColor=#d80073;strokeWidth=5;align=center;verticalAlign=middle;fontFamily=Helvetica;fontSize=11;labelBackgroundColor=default;startSize=5;endArrow=classic;endSize=5;curved=0;movable=1;resizable=1;rotatable=1;deletable=1;editable=1;locked=0;connectable=1;" parent="WIyWlLk6GJQsqaUBKTNV-1" source="9Ab4cJnhd8zgXZMk1Fa1-1" target="9Ab4cJnhd8zgXZMk1Fa1-32" edge="1">
          <mxGeometry relative="1" as="geometry" />
        </mxCell>
        <mxCell id="9Ab4cJnhd8zgXZMk1Fa1-38" style="edgeStyle=orthogonalEdgeStyle;rounded=0;orthogonalLoop=1;jettySize=auto;html=1;exitX=0.25;exitY=1;exitDx=0;exitDy=0;entryX=0.5;entryY=0;entryDx=0;entryDy=0;strokeColor=#A50040;fontColor=#095C86;fillColor=#d80073;strokeWidth=5;align=center;verticalAlign=middle;fontFamily=Helvetica;fontSize=11;labelBackgroundColor=default;startSize=5;endArrow=classic;endSize=5;curved=0;movable=1;resizable=1;rotatable=1;deletable=1;editable=1;locked=0;connectable=1;" parent="WIyWlLk6GJQsqaUBKTNV-1" source="9Ab4cJnhd8zgXZMk1Fa1-1" target="9Ab4cJnhd8zgXZMk1Fa1-30" edge="1">
          <mxGeometry relative="1" as="geometry" />
        </mxCell>
        <mxCell id="9Ab4cJnhd8zgXZMk1Fa1-39" style="edgeStyle=orthogonalEdgeStyle;rounded=0;orthogonalLoop=1;jettySize=auto;html=1;exitX=0;exitY=0.75;exitDx=0;exitDy=0;strokeColor=#A50040;fontColor=#095C86;fillColor=#d80073;strokeWidth=5;align=center;verticalAlign=middle;fontFamily=Helvetica;fontSize=11;labelBackgroundColor=default;startSize=5;endArrow=classic;endSize=5;curved=0;movable=1;resizable=1;rotatable=1;deletable=1;editable=1;locked=0;connectable=1;" parent="WIyWlLk6GJQsqaUBKTNV-1" source="9Ab4cJnhd8zgXZMk1Fa1-1" target="9Ab4cJnhd8zgXZMk1Fa1-29" edge="1">
          <mxGeometry relative="1" as="geometry" />
        </mxCell>
        <mxCell id="9Ab4cJnhd8zgXZMk1Fa1-1" value="base_three_omni" style="whiteSpace=wrap;html=1;aspect=fixed;strokeColor=#2D7600;fontColor=#ffffff;fillColor=#60a917;movable=1;resizable=1;rotatable=1;deletable=1;editable=1;locked=0;connectable=1;fontSize=15;" parent="WIyWlLk6GJQsqaUBKTNV-1" vertex="1">
          <mxGeometry x="340" y="10" width="120" height="120" as="geometry" />
        </mxCell>
        <mxCell id="9Ab4cJnhd8zgXZMk1Fa1-2" value="base_fire" style="whiteSpace=wrap;html=1;aspect=fixed;strokeColor=#2D7600;fontColor=#ffffff;fillColor=#60a917;movable=1;resizable=1;rotatable=1;deletable=1;editable=1;locked=0;connectable=1;fontSize=15;" parent="WIyWlLk6GJQsqaUBKTNV-1" vertex="1">
          <mxGeometry x="780" y="-160" width="120" height="120" as="geometry" />
        </mxCell>
        <mxCell id="9Ab4cJnhd8zgXZMk1Fa1-3" value="electric_cylinder" style="whiteSpace=wrap;html=1;aspect=fixed;strokeColor=#2D7600;fontColor=#ffffff;fillColor=#60a917;movable=1;resizable=1;rotatable=1;deletable=1;editable=1;locked=0;connectable=1;fontSize=15;" parent="WIyWlLk6GJQsqaUBKTNV-1" vertex="1">
          <mxGeometry x="780" y="10" width="120" height="120" as="geometry" />
        </mxCell>
        <mxCell id="9Ab4cJnhd8zgXZMk1Fa1-17" style="edgeStyle=orthogonalEdgeStyle;rounded=0;orthogonalLoop=1;jettySize=auto;html=1;entryX=0.5;entryY=1;entryDx=0;entryDy=0;strokeColor=#B09500;fontColor=#095C86;fillColor=#e3c800;strokeWidth=5;align=center;verticalAlign=middle;fontFamily=Helvetica;fontSize=11;labelBackgroundColor=default;startSize=5;endArrow=classic;endSize=5;curved=0;movable=1;resizable=1;rotatable=1;deletable=1;editable=1;locked=0;connectable=1;" parent="WIyWlLk6GJQsqaUBKTNV-1" source="9Ab4cJnhd8zgXZMk1Fa1-4" target="9Ab4cJnhd8zgXZMk1Fa1-1" edge="1">
          <mxGeometry relative="1" as="geometry" />
        </mxCell>
        <mxCell id="9Ab4cJnhd8zgXZMk1Fa1-4" value="digital_compass" style="whiteSpace=wrap;html=1;aspect=fixed;strokeColor=#2D7600;fontColor=#ffffff;fillColor=#60a917;movable=1;resizable=1;rotatable=1;deletable=1;editable=1;locked=0;connectable=1;fontSize=15;" parent="WIyWlLk6GJQsqaUBKTNV-1" vertex="1">
          <mxGeometry x="780" y="220" width="120" height="120" as="geometry" />
        </mxCell>
        <mxCell id="9Ab4cJnhd8zgXZMk1Fa1-13" style="edgeStyle=orthogonalEdgeStyle;rounded=0;orthogonalLoop=1;jettySize=auto;html=1;entryX=0.005;entryY=0.457;entryDx=0;entryDy=0;entryPerimeter=0;strokeColor=#A50040;fontColor=#095C86;fillColor=#d80073;strokeWidth=5;align=center;verticalAlign=middle;fontFamily=Helvetica;fontSize=11;labelBackgroundColor=default;startSize=5;endArrow=classic;endSize=5;curved=0;movable=1;resizable=1;rotatable=1;deletable=1;editable=1;locked=0;connectable=1;" parent="WIyWlLk6GJQsqaUBKTNV-1" source="9Ab4cJnhd8zgXZMk1Fa1-1" target="9Ab4cJnhd8zgXZMk1Fa1-2" edge="1">
          <mxGeometry relative="1" as="geometry" />
        </mxCell>
        <mxCell id="9Ab4cJnhd8zgXZMk1Fa1-16" value="I2C : 11" style="text;html=1;align=center;verticalAlign=middle;whiteSpace=wrap;rounded=0;fontColor=#ffffff;fillColor=#1ba1e2;strokeColor=#006EAF;movable=1;resizable=1;rotatable=1;deletable=1;editable=1;locked=0;connectable=1;" parent="WIyWlLk6GJQsqaUBKTNV-1" vertex="1">
          <mxGeometry x="670" y="-150" width="60" height="30" as="geometry" />
        </mxCell>
        <mxCell id="9Ab4cJnhd8zgXZMk1Fa1-19" style="edgeStyle=orthogonalEdgeStyle;rounded=0;orthogonalLoop=1;jettySize=auto;html=1;entryX=0.5;entryY=0;entryDx=0;entryDy=0;strokeColor=#B09500;fontColor=#095C86;fillColor=#e3c800;curved=0;endSize=5;startSize=5;strokeWidth=5;movable=1;resizable=1;rotatable=1;deletable=1;editable=1;locked=0;connectable=1;" parent="WIyWlLk6GJQsqaUBKTNV-1" source="9Ab4cJnhd8zgXZMk1Fa1-18" target="9Ab4cJnhd8zgXZMk1Fa1-1" edge="1">
          <mxGeometry relative="1" as="geometry" />
        </mxCell>
        <mxCell id="9Ab4cJnhd8zgXZMk1Fa1-18" value="GamePad" style="whiteSpace=wrap;html=1;aspect=fixed;strokeColor=#001DBC;fontColor=#ffffff;fillColor=#0050ef;movable=1;resizable=1;rotatable=1;deletable=1;editable=1;locked=0;connectable=1;fontSize=15;" parent="WIyWlLk6GJQsqaUBKTNV-1" vertex="1">
          <mxGeometry x="340" y="-210" width="120" height="120" as="geometry" />
        </mxCell>
        <mxCell id="9Ab4cJnhd8zgXZMk1Fa1-20" value="I2C: 10" style="text;html=1;align=center;verticalAlign=middle;whiteSpace=wrap;rounded=0;fontColor=#ffffff;fillColor=#1ba1e2;strokeColor=#006EAF;movable=1;resizable=1;rotatable=1;deletable=1;editable=1;locked=0;connectable=1;" parent="WIyWlLk6GJQsqaUBKTNV-1" vertex="1">
          <mxGeometry x="670" y="30" width="60" height="30" as="geometry" />
        </mxCell>
        <mxCell id="9Ab4cJnhd8zgXZMk1Fa1-21" value="I2C: 8" style="text;html=1;align=center;verticalAlign=middle;whiteSpace=wrap;rounded=0;fontColor=#ffffff;fillColor=#1ba1e2;strokeColor=#006EAF;movable=1;resizable=1;rotatable=1;deletable=1;editable=1;locked=0;connectable=1;" parent="WIyWlLk6GJQsqaUBKTNV-1" vertex="1">
          <mxGeometry x="645" y="240" width="60" height="30" as="geometry" />
        </mxCell>
        <mxCell id="9Ab4cJnhd8zgXZMk1Fa1-22" value="KEY_FIRE = 1" style="text;html=1;align=center;verticalAlign=middle;whiteSpace=wrap;rounded=0;fontColor=#ffffff;fillColor=#6a00ff;strokeColor=#3700CC;movable=1;resizable=1;rotatable=1;deletable=1;editable=1;locked=0;connectable=1;" parent="WIyWlLk6GJQsqaUBKTNV-1" vertex="1">
          <mxGeometry x="655" y="-90" width="90" height="30" as="geometry" />
        </mxCell>
        <mxCell id="9Ab4cJnhd8zgXZMk1Fa1-23" value="FORWARD = 1&lt;div&gt;STOP = 0&lt;/div&gt;&lt;div&gt;BACKWARD = -1&lt;/div&gt;" style="text;html=1;align=center;verticalAlign=middle;whiteSpace=wrap;rounded=0;fontColor=#ffffff;fillColor=#6a00ff;strokeColor=#3700CC;movable=1;resizable=1;rotatable=1;deletable=1;editable=1;locked=0;connectable=1;" parent="WIyWlLk6GJQsqaUBKTNV-1" vertex="1">
          <mxGeometry x="647.5" y="80" width="105" height="70" as="geometry" />
        </mxCell>
        <mxCell id="9Ab4cJnhd8zgXZMk1Fa1-24" value="VALUE ANGLE = [-360, 360&lt;span style=&quot;background-color: initial;&quot;&gt;]&lt;/span&gt;" style="text;html=1;align=center;verticalAlign=middle;whiteSpace=wrap;rounded=0;fontColor=#ffffff;fillColor=#6a00ff;strokeColor=#3700CC;movable=1;resizable=1;rotatable=1;deletable=1;editable=1;locked=0;connectable=1;" parent="WIyWlLk6GJQsqaUBKTNV-1" vertex="1">
          <mxGeometry x="590" y="290" width="170" height="30" as="geometry" />
        </mxCell>
        <mxCell id="9Ab4cJnhd8zgXZMk1Fa1-25" value="SPI" style="text;html=1;align=center;verticalAlign=middle;whiteSpace=wrap;rounded=0;fontColor=#ffffff;fillColor=#1ba1e2;strokeColor=#006EAF;movable=1;resizable=1;rotatable=1;deletable=1;editable=1;locked=0;connectable=1;" parent="WIyWlLk6GJQsqaUBKTNV-1" vertex="1">
          <mxGeometry x="410" y="-70" width="60" height="30" as="geometry" />
        </mxCell>
        <mxCell id="9Ab4cJnhd8zgXZMk1Fa1-29" value="driver_pid_1" style="whiteSpace=wrap;html=1;aspect=fixed;strokeColor=#2D7600;fontColor=#ffffff;fillColor=#60a917;movable=1;resizable=1;rotatable=1;deletable=1;editable=1;locked=0;connectable=1;fontSize=15;" parent="WIyWlLk6GJQsqaUBKTNV-1" vertex="1">
          <mxGeometry x="210" y="470" width="120" height="120" as="geometry" />
        </mxCell>
        <mxCell id="9Ab4cJnhd8zgXZMk1Fa1-30" value="driver_pid_2" style="whiteSpace=wrap;html=1;aspect=fixed;strokeColor=#2D7600;fontColor=#ffffff;fillColor=#60a917;movable=1;resizable=1;rotatable=1;deletable=1;editable=1;locked=0;connectable=1;fontSize=15;" parent="WIyWlLk6GJQsqaUBKTNV-1" vertex="1">
          <mxGeometry x="350" y="470" width="120" height="120" as="geometry" />
        </mxCell>
        <mxCell id="9Ab4cJnhd8zgXZMk1Fa1-32" value="driver_pid_3" style="whiteSpace=wrap;html=1;aspect=fixed;strokeColor=#2D7600;fontColor=#ffffff;fillColor=#60a917;movable=1;resizable=1;rotatable=1;deletable=1;editable=1;locked=0;connectable=1;fontSize=15;" parent="WIyWlLk6GJQsqaUBKTNV-1" vertex="1">
          <mxGeometry x="485" y="470" width="120" height="120" as="geometry" />
        </mxCell>
        <mxCell id="9Ab4cJnhd8zgXZMk1Fa1-40" value="I2C: 20" style="text;html=1;align=center;verticalAlign=middle;whiteSpace=wrap;rounded=0;fontColor=#ffffff;fillColor=#1ba1e2;strokeColor=#006EAF;movable=1;resizable=1;rotatable=1;deletable=1;editable=1;locked=0;connectable=1;" parent="WIyWlLk6GJQsqaUBKTNV-1" vertex="1">
          <mxGeometry x="200" y="330" width="60" height="30" as="geometry" />
        </mxCell>
        <mxCell id="9Ab4cJnhd8zgXZMk1Fa1-41" value="I2C: 21" style="text;html=1;align=center;verticalAlign=middle;whiteSpace=wrap;rounded=0;fontColor=#ffffff;fillColor=#1ba1e2;strokeColor=#006EAF;movable=1;resizable=1;rotatable=1;deletable=1;editable=1;locked=0;connectable=1;" parent="WIyWlLk6GJQsqaUBKTNV-1" vertex="1">
          <mxGeometry x="330" y="330" width="60" height="30" as="geometry" />
        </mxCell>
        <mxCell id="9Ab4cJnhd8zgXZMk1Fa1-42" value="I2C: 22" style="text;html=1;align=center;verticalAlign=middle;whiteSpace=wrap;rounded=0;fontColor=#ffffff;fillColor=#1ba1e2;strokeColor=#006EAF;movable=1;resizable=1;rotatable=1;deletable=1;editable=1;locked=0;connectable=1;" parent="WIyWlLk6GJQsqaUBKTNV-1" vertex="1">
          <mxGeometry x="470" y="330" width="60" height="30" as="geometry" />
        </mxCell>
        <mxCell id="9Ab4cJnhd8zgXZMk1Fa1-43" value="VALUE VEL = [-MAX RPM OF MOTOR, MAX RPM OF MOTOR]" style="text;html=1;align=center;verticalAlign=middle;whiteSpace=wrap;rounded=0;fontColor=#ffffff;fillColor=#6a00ff;strokeColor=#3700CC;movable=1;resizable=1;rotatable=1;deletable=1;editable=1;locked=0;connectable=1;" parent="WIyWlLk6GJQsqaUBKTNV-1" vertex="1">
          <mxGeometry x="200" y="370" width="360" height="30" as="geometry" />
        </mxCell>
        <mxCell id="9Ab4cJnhd8zgXZMk1Fa1-74" style="edgeStyle=orthogonalEdgeStyle;rounded=0;orthogonalLoop=1;jettySize=auto;html=1;strokeColor=#A50040;fontColor=#095C86;fillColor=#d80073;strokeWidth=5;align=center;verticalAlign=middle;fontFamily=Helvetica;fontSize=11;labelBackgroundColor=default;startSize=5;endArrow=classic;endSize=5;curved=0;movable=1;resizable=1;rotatable=1;deletable=1;editable=1;locked=0;connectable=1;" parent="WIyWlLk6GJQsqaUBKTNV-1" source="9Ab4cJnhd8zgXZMk1Fa1-61" target="9Ab4cJnhd8zgXZMk1Fa1-71" edge="1">
          <mxGeometry relative="1" as="geometry" />
        </mxCell>
        <mxCell id="9Ab4cJnhd8zgXZMk1Fa1-61" value="REMOTE 315MHz" style="whiteSpace=wrap;html=1;aspect=fixed;strokeColor=#001DBC;fontColor=#ffffff;fillColor=#0050ef;movable=1;resizable=1;rotatable=1;deletable=1;editable=1;locked=0;connectable=1;fontSize=15;" parent="WIyWlLk6GJQsqaUBKTNV-1" vertex="1">
          <mxGeometry x="90" y="-210" width="120" height="120" as="geometry" />
        </mxCell>
        <mxCell id="9Ab4cJnhd8zgXZMk1Fa1-81" style="edgeStyle=orthogonalEdgeStyle;rounded=0;orthogonalLoop=1;jettySize=auto;html=1;entryX=1;entryY=0.5;entryDx=0;entryDy=0;strokeColor=#BD7000;fontColor=#095C86;fillColor=#f0a30a;strokeWidth=5;align=center;verticalAlign=middle;fontFamily=Helvetica;fontSize=11;labelBackgroundColor=default;startSize=5;endArrow=classic;endSize=5;curved=0;movable=1;resizable=1;rotatable=1;deletable=1;editable=1;locked=0;connectable=1;" parent="WIyWlLk6GJQsqaUBKTNV-1" source="9Ab4cJnhd8zgXZMk1Fa1-71" target="9Ab4cJnhd8zgXZMk1Fa1-75" edge="1">
          <mxGeometry relative="1" as="geometry" />
        </mxCell>
        <mxCell id="9Ab4cJnhd8zgXZMk1Fa1-71" value="RELAY 12V 315MHz" style="whiteSpace=wrap;html=1;aspect=fixed;strokeColor=#001DBC;fontColor=#ffffff;fillColor=#0050ef;fontSize=15;movable=1;resizable=1;rotatable=1;deletable=1;editable=1;locked=0;connectable=1;" parent="WIyWlLk6GJQsqaUBKTNV-1" vertex="1">
          <mxGeometry x="-550" y="-210" width="120" height="120" as="geometry" />
        </mxCell>
        <mxCell id="9Ab4cJnhd8zgXZMk1Fa1-100" style="edgeStyle=orthogonalEdgeStyle;rounded=0;orthogonalLoop=1;jettySize=auto;html=1;entryX=0.5;entryY=0;entryDx=0;entryDy=0;strokeColor=#A50040;fontColor=#095C86;fillColor=#d80073;strokeWidth=5;align=center;verticalAlign=middle;fontFamily=Helvetica;fontSize=11;labelBackgroundColor=default;startSize=5;endArrow=classic;endSize=5;curved=0;movable=1;resizable=1;rotatable=1;deletable=1;editable=1;locked=0;connectable=1;" parent="WIyWlLk6GJQsqaUBKTNV-1" source="9Ab4cJnhd8zgXZMk1Fa1-75" target="9Ab4cJnhd8zgXZMk1Fa1-99" edge="1">
          <mxGeometry relative="1" as="geometry" />
        </mxCell>
        <mxCell id="pxWhu3H96w3rjdx0i3V--0" style="edgeStyle=orthogonalEdgeStyle;rounded=0;orthogonalLoop=1;jettySize=auto;html=1;entryX=0.5;entryY=0;entryDx=0;entryDy=0;strokeColor=#A50040;strokeWidth=5;align=center;verticalAlign=middle;fontFamily=Helvetica;fontSize=11;fontColor=#095C86;labelBackgroundColor=default;resizable=1;startSize=5;endArrow=classic;endSize=5;curved=0;fillColor=#d80073;" edge="1" parent="WIyWlLk6GJQsqaUBKTNV-1" source="9Ab4cJnhd8zgXZMk1Fa1-75" target="9Ab4cJnhd8zgXZMk1Fa1-92">
          <mxGeometry relative="1" as="geometry" />
        </mxCell>
        <mxCell id="9Ab4cJnhd8zgXZMk1Fa1-75" value="base_4_wheel" style="whiteSpace=wrap;html=1;aspect=fixed;strokeColor=#2D7600;fontColor=#ffffff;fillColor=#60a917;fontSize=15;movable=1;resizable=1;rotatable=1;deletable=1;editable=1;locked=0;connectable=1;" parent="WIyWlLk6GJQsqaUBKTNV-1" vertex="1">
          <mxGeometry x="-830" y="-210" width="120" height="120" as="geometry" />
        </mxCell>
        <mxCell id="9Ab4cJnhd8zgXZMk1Fa1-85" value="5V" style="text;html=1;align=center;verticalAlign=middle;whiteSpace=wrap;rounded=0;fontColor=#ffffff;fillColor=#1ba1e2;strokeColor=#006EAF;movable=1;resizable=1;rotatable=1;deletable=1;editable=1;locked=0;connectable=1;" parent="WIyWlLk6GJQsqaUBKTNV-1" vertex="1">
          <mxGeometry x="-660" y="-200" width="60" height="30" as="geometry" />
        </mxCell>
        <mxCell id="9Ab4cJnhd8zgXZMk1Fa1-89" style="edgeStyle=orthogonalEdgeStyle;rounded=0;orthogonalLoop=1;jettySize=auto;html=1;entryX=0.5;entryY=1;entryDx=0;entryDy=0;strokeColor=#BD7000;fontColor=#095C86;fillColor=#f0a30a;strokeWidth=5;align=center;verticalAlign=middle;fontFamily=Helvetica;fontSize=11;labelBackgroundColor=default;startSize=5;endArrow=classic;endSize=5;curved=0;movable=1;resizable=1;rotatable=1;deletable=1;editable=1;locked=0;connectable=1;" parent="WIyWlLk6GJQsqaUBKTNV-1" source="9Ab4cJnhd8zgXZMk1Fa1-88" target="9Ab4cJnhd8zgXZMk1Fa1-75" edge="1">
          <mxGeometry relative="1" as="geometry" />
        </mxCell>
        <mxCell id="9Ab4cJnhd8zgXZMk1Fa1-88" value="digital compass" style="whiteSpace=wrap;html=1;aspect=fixed;strokeColor=#2D7600;fontColor=#ffffff;fillColor=#60a917;fontSize=15;movable=1;resizable=1;rotatable=1;deletable=1;editable=1;locked=0;connectable=1;" parent="WIyWlLk6GJQsqaUBKTNV-1" vertex="1">
          <mxGeometry x="-826.25" y="153.75" width="112.5" height="112.5" as="geometry" />
        </mxCell>
        <mxCell id="9Ab4cJnhd8zgXZMk1Fa1-90" value="I2C: 8" style="text;html=1;align=center;verticalAlign=middle;whiteSpace=wrap;rounded=0;fontColor=#ffffff;fillColor=#1ba1e2;strokeColor=#006EAF;movable=1;resizable=1;rotatable=1;deletable=1;editable=1;locked=0;connectable=1;" parent="WIyWlLk6GJQsqaUBKTNV-1" vertex="1">
          <mxGeometry x="-760" width="60" height="30" as="geometry" />
        </mxCell>
        <mxCell id="9Ab4cJnhd8zgXZMk1Fa1-92" value="base_fire" style="whiteSpace=wrap;html=1;aspect=fixed;strokeColor=#2D7600;fontColor=#ffffff;fillColor=#60a917;fontSize=15;movable=1;resizable=1;rotatable=1;deletable=1;editable=1;locked=0;connectable=1;" parent="WIyWlLk6GJQsqaUBKTNV-1" vertex="1">
          <mxGeometry x="-1250" y="153.75" width="120" height="120" as="geometry" />
        </mxCell>
        <mxCell id="9Ab4cJnhd8zgXZMk1Fa1-99" value="occupied" style="whiteSpace=wrap;html=1;aspect=fixed;strokeColor=#2D7600;fontColor=#ffffff;fillColor=#60a917;fontSize=15;movable=1;resizable=1;rotatable=1;deletable=1;editable=1;locked=0;connectable=1;" parent="WIyWlLk6GJQsqaUBKTNV-1" vertex="1">
          <mxGeometry x="-1050" y="150" width="120" height="120" as="geometry" />
        </mxCell>
        <mxCell id="9Ab4cJnhd8zgXZMk1Fa1-102" value="I2C : 9" style="text;html=1;align=center;verticalAlign=middle;whiteSpace=wrap;rounded=0;fontColor=#ffffff;fillColor=#1ba1e2;strokeColor=#006EAF;movable=1;resizable=1;rotatable=1;deletable=1;editable=1;locked=0;connectable=1;" parent="WIyWlLk6GJQsqaUBKTNV-1" vertex="1">
          <mxGeometry x="-980" y="-40" width="60" height="30" as="geometry" />
        </mxCell>
        <mxCell id="9Ab4cJnhd8zgXZMk1Fa1-104" value="315 MHz" style="text;html=1;align=center;verticalAlign=middle;whiteSpace=wrap;rounded=0;fontColor=#ffffff;fillColor=#6a00ff;strokeColor=#3700CC;movable=1;resizable=1;rotatable=1;deletable=1;editable=1;locked=0;connectable=1;" parent="WIyWlLk6GJQsqaUBKTNV-1" vertex="1">
          <mxGeometry x="-280" y="-140" width="330" height="30" as="geometry" />
        </mxCell>
        <mxCell id="9Ab4cJnhd8zgXZMk1Fa1-106" value="VALUE ANGLE&amp;nbsp;" style="text;html=1;align=center;verticalAlign=middle;whiteSpace=wrap;rounded=0;fontColor=#ffffff;fillColor=#6a00ff;strokeColor=#3700CC;movable=1;resizable=1;rotatable=1;deletable=1;editable=1;locked=0;connectable=1;" parent="WIyWlLk6GJQsqaUBKTNV-1" vertex="1">
          <mxGeometry x="-760" y="40" width="400" height="30" as="geometry" />
        </mxCell>
        <mxCell id="9Ab4cJnhd8zgXZMk1Fa1-107" value="OCCUPIED = 1" style="text;html=1;align=center;verticalAlign=middle;whiteSpace=wrap;rounded=0;fontColor=#ffffff;fillColor=#6a00ff;strokeColor=#3700CC;movable=1;resizable=1;rotatable=1;deletable=1;editable=1;locked=0;connectable=1;" parent="WIyWlLk6GJQsqaUBKTNV-1" vertex="1">
          <mxGeometry x="-980" width="130" height="50" as="geometry" />
        </mxCell>
        <mxCell id="9Ab4cJnhd8zgXZMk1Fa1-121" value="ROBOCON24_DK" style="text;html=1;align=center;verticalAlign=middle;whiteSpace=wrap;rounded=0;fontColor=#FF0000;fontSize=100;labelBorderColor=none;textShadow=1;labelBackgroundColor=none;movable=1;resizable=1;rotatable=1;deletable=1;editable=1;locked=0;connectable=1;" parent="WIyWlLk6GJQsqaUBKTNV-1" vertex="1">
          <mxGeometry x="425" y="-310" width="60" height="30" as="geometry" />
        </mxCell>
        <mxCell id="9Ab4cJnhd8zgXZMk1Fa1-122" value="ROBOCON24_TH" style="text;html=1;align=center;verticalAlign=middle;whiteSpace=wrap;rounded=0;fontColor=#FF0000;fontSize=100;textShadow=1;movable=1;resizable=1;rotatable=1;deletable=1;editable=1;locked=0;connectable=1;" parent="WIyWlLk6GJQsqaUBKTNV-1" vertex="1">
          <mxGeometry x="-950" y="440" width="60" height="30" as="geometry" />
        </mxCell>
        <mxCell id="pxWhu3H96w3rjdx0i3V--1" value="I2C : 11" style="text;html=1;align=center;verticalAlign=middle;whiteSpace=wrap;rounded=0;fontColor=#ffffff;fillColor=#1ba1e2;strokeColor=#006EAF;movable=1;resizable=1;rotatable=1;deletable=1;editable=1;locked=0;connectable=1;" vertex="1" parent="WIyWlLk6GJQsqaUBKTNV-1">
          <mxGeometry x="-1170" y="-40" width="60" height="30" as="geometry" />
        </mxCell>
        <mxCell id="pxWhu3H96w3rjdx0i3V--2" value="FIRE = 1" style="text;html=1;align=center;verticalAlign=middle;whiteSpace=wrap;rounded=0;fontColor=#ffffff;fillColor=#6a00ff;strokeColor=#3700CC;movable=1;resizable=1;rotatable=1;deletable=1;editable=1;locked=0;connectable=1;" vertex="1" parent="WIyWlLk6GJQsqaUBKTNV-1">
          <mxGeometry x="-1170" width="130" height="50" as="geometry" />
        </mxCell>
        <mxCell id="pxWhu3H96w3rjdx0i3V--7" style="edgeStyle=orthogonalEdgeStyle;rounded=0;orthogonalLoop=1;jettySize=auto;html=1;entryX=0;entryY=0.25;entryDx=0;entryDy=0;strokeColor=#BD7000;strokeWidth=5;align=center;verticalAlign=middle;fontFamily=Helvetica;fontSize=11;fontColor=#095C86;labelBackgroundColor=default;resizable=1;startSize=5;endArrow=classic;endSize=5;curved=0;fillColor=#f0a30a;" edge="1" parent="WIyWlLk6GJQsqaUBKTNV-1" source="pxWhu3H96w3rjdx0i3V--6" target="9Ab4cJnhd8zgXZMk1Fa1-75">
          <mxGeometry relative="1" as="geometry" />
        </mxCell>
        <mxCell id="pxWhu3H96w3rjdx0i3V--6" value="Line ADC" style="whiteSpace=wrap;html=1;aspect=fixed;strokeColor=#2D7600;fontColor=#ffffff;fillColor=#60a917;fontSize=15;movable=1;resizable=1;rotatable=1;deletable=1;editable=1;locked=0;connectable=1;" vertex="1" parent="WIyWlLk6GJQsqaUBKTNV-1">
          <mxGeometry x="-1110" y="-340" width="112.5" height="112.5" as="geometry" />
        </mxCell>
        <mxCell id="pxWhu3H96w3rjdx0i3V--8" value="8 LINE 5V" style="text;html=1;align=center;verticalAlign=middle;whiteSpace=wrap;rounded=0;fontColor=#ffffff;fillColor=#1ba1e2;strokeColor=#006EAF;movable=1;resizable=1;rotatable=1;deletable=1;editable=1;locked=0;connectable=1;" vertex="1" parent="WIyWlLk6GJQsqaUBKTNV-1">
          <mxGeometry x="-970" y="-330" width="60" height="30" as="geometry" />
        </mxCell>
        <mxCell id="pxWhu3H96w3rjdx0i3V--19" style="edgeStyle=orthogonalEdgeStyle;rounded=0;orthogonalLoop=1;jettySize=auto;html=1;entryX=0.5;entryY=0;entryDx=0;entryDy=0;strokeColor=#BD7000;strokeWidth=5;align=center;verticalAlign=middle;fontFamily=Helvetica;fontSize=11;fontColor=#095C86;labelBackgroundColor=default;resizable=1;startSize=5;endArrow=classic;endSize=5;curved=0;fillColor=#f0a30a;" edge="1" parent="WIyWlLk6GJQsqaUBKTNV-1" source="pxWhu3H96w3rjdx0i3V--11" target="9Ab4cJnhd8zgXZMk1Fa1-75">
          <mxGeometry relative="1" as="geometry">
            <Array as="points">
              <mxPoint x="-1260" y="-60" />
              <mxPoint x="-1260" y="-350" />
              <mxPoint x="-770" y="-350" />
            </Array>
          </mxGeometry>
        </mxCell>
        <mxCell id="pxWhu3H96w3rjdx0i3V--11" value="Pi 3 B+" style="whiteSpace=wrap;html=1;aspect=fixed;strokeColor=#AF45ED;fontColor=#095C86;fillColor=#F694C1;fontSize=15;movable=1;resizable=1;rotatable=1;deletable=1;editable=1;locked=0;connectable=1;" vertex="1" parent="WIyWlLk6GJQsqaUBKTNV-1">
          <mxGeometry x="-1640" y="-120" width="120" height="120" as="geometry" />
        </mxCell>
        <mxCell id="pxWhu3H96w3rjdx0i3V--12" style="edgeStyle=orthogonalEdgeStyle;rounded=0;orthogonalLoop=1;jettySize=auto;html=1;entryX=0.5;entryY=0;entryDx=0;entryDy=0;strokeColor=#BD7000;strokeWidth=5;align=center;verticalAlign=middle;fontFamily=Helvetica;fontSize=11;fontColor=#095C86;labelBackgroundColor=default;resizable=1;startSize=5;endArrow=classic;endSize=5;curved=0;fillColor=#f0a30a;movable=1;rotatable=1;deletable=1;editable=1;locked=0;connectable=1;" edge="1" parent="WIyWlLk6GJQsqaUBKTNV-1" source="pxWhu3H96w3rjdx0i3V--13" target="pxWhu3H96w3rjdx0i3V--11">
          <mxGeometry relative="1" as="geometry" />
        </mxCell>
        <mxCell id="pxWhu3H96w3rjdx0i3V--13" value="CAM" style="whiteSpace=wrap;html=1;aspect=fixed;strokeColor=#001DBC;fontColor=#ffffff;fillColor=#0050ef;fontSize=15;movable=1;resizable=1;rotatable=1;deletable=1;editable=1;locked=0;connectable=1;" vertex="1" parent="WIyWlLk6GJQsqaUBKTNV-1">
          <mxGeometry x="-1640" y="-330" width="120" height="120" as="geometry" />
        </mxCell>
        <mxCell id="pxWhu3H96w3rjdx0i3V--14" value="USB" style="text;html=1;align=center;verticalAlign=middle;whiteSpace=wrap;rounded=0;fontColor=#ffffff;fillColor=#1ba1e2;strokeColor=#006EAF;movable=1;resizable=1;rotatable=1;deletable=1;editable=1;locked=0;connectable=1;" vertex="1" parent="WIyWlLk6GJQsqaUBKTNV-1">
          <mxGeometry x="-1560" y="-190" width="60" height="30" as="geometry" />
        </mxCell>
        <mxCell id="pxWhu3H96w3rjdx0i3V--15" value="Serial" style="text;html=1;align=center;verticalAlign=middle;whiteSpace=wrap;rounded=0;fontColor=#ffffff;fillColor=#1ba1e2;strokeColor=#006EAF;movable=1;resizable=1;rotatable=1;deletable=1;editable=1;locked=0;connectable=1;" vertex="1" parent="WIyWlLk6GJQsqaUBKTNV-1">
          <mxGeometry x="-1460" y="-160" width="60" height="30" as="geometry" />
        </mxCell>
        <mxCell id="pxWhu3H96w3rjdx0i3V--16" value="KEY_FIRE = &#39;1&#39;&lt;div&gt;KEY_NO_FIRE =&amp;nbsp; &#39;0&#39;&lt;/div&gt;" style="text;html=1;align=center;verticalAlign=middle;whiteSpace=wrap;rounded=0;fontColor=#ffffff;fillColor=#6a00ff;strokeColor=#3700CC;movable=1;resizable=1;rotatable=1;deletable=1;editable=1;locked=0;connectable=1;" vertex="1" parent="WIyWlLk6GJQsqaUBKTNV-1">
          <mxGeometry x="-1460" y="-120" width="130" height="50" as="geometry" />
        </mxCell>
        <mxCell id="pxWhu3H96w3rjdx0i3V--20" style="edgeStyle=orthogonalEdgeStyle;rounded=0;orthogonalLoop=1;jettySize=auto;html=1;exitX=0.5;exitY=1;exitDx=0;exitDy=0;" edge="1" parent="WIyWlLk6GJQsqaUBKTNV-1" source="9Ab4cJnhd8zgXZMk1Fa1-67" target="9Ab4cJnhd8zgXZMk1Fa1-67">
          <mxGeometry relative="1" as="geometry" />
        </mxCell>
      </root>
    </mxGraphModel>
  </diagram>
</mxfile>
